<svg enable-background="new 0 0 256 256" height="512" viewBox="0 0 256 256" width="512" xmlns="http://www.w3.org/2000/svg"><g id="Layer_1"><g><path d="m141.396 190.559c0-6.225 3.838-11.798 9.655-14.014 11.698-4.456 29.982-12.524 45.989-24.385 17.13-12.69 26.57-33.17 25.44-54.46-2.065-39-18.626-77.279-23.553-87.893-.819-1.765-2.586-2.887-4.532-2.887h-132.791c-1.946 0-3.713 1.122-4.532 2.887-4.926 10.614-21.487 48.893-23.552 87.893-1.13 21.29 8.31 41.77 25.44 54.46 16.007 11.861 34.291 19.929 45.989 24.385 5.817 2.216 9.655 7.789 9.655 14.014v25.355c0 6.589-4.299 12.406-10.598 14.339l-29.483 9.052c-5.488 1.685-4.273 9.78 1.467 9.78h104.018c5.741 0 6.956-8.095 1.467-9.78l-29.483-9.052c-6.298-1.934-10.598-7.751-10.598-14.339z" fill="#efefef"/><path d="m110.219 162.488c-10.769-4.119-27.8-11.614-42.329-22.38-13.014-9.641-20.262-25.197-19.391-41.613 1.641-30.995 13.43-62.147 19.609-76.575h119.784c6.177 14.422 17.967 45.578 19.609 76.574.871 16.417-6.377 31.974-19.39 41.614-14.53 10.766-31.561 18.262-42.329 22.381-11.328 4.332-23.897 4.461-35.563-.001z" fill="#f0c020"/><g><path d="m247.568 50.063c-3.726-1.227-6.637-2.021-8.586-10.415-.634-2.735-4.545-2.728-5.178 0-1.906 8.207-4.563 9.086-8.586 10.415-2.423.8-2.428 4.245 0 5.047 6.682 2.207 7.439 5.472 8.585 10.414.637 2.741 4.542 2.74 5.179 0 1.904-8.207 4.706-9.133 8.585-10.414 2.423-.799 2.429-4.245.001-5.047z"/><g><path d="m240.373 52.615c-1.467 1.033-2.789 2.422-3.922 4.434-.944-1.589-2.256-3.089-4.167-4.4 1.545-1.067 2.933-2.5 4.122-4.633 1.201 2.154 2.556 3.588 3.967 4.599z" fill="#f0c020"/></g></g><g><path d="m30.782 50.063c-3.726-1.227-6.637-2.021-8.586-10.415-.634-2.735-4.545-2.728-5.178 0-1.906 8.207-4.563 9.086-8.586 10.415-2.423.8-2.428 4.245 0 5.047 6.682 2.207 7.439 5.472 8.585 10.414.637 2.741 4.542 2.74 5.179 0 1.904-8.207 4.706-9.133 8.585-10.414 2.423-.799 2.429-4.245.001-5.047z"/><g><path d="m23.587 52.615c-1.467 1.033-2.789 2.422-3.922 4.434-.944-1.589-2.256-3.089-4.167-4.4 1.545-1.067 2.933-2.5 4.122-4.633 1.201 2.154 2.556 3.588 3.967 4.599z" fill="#f0c020"/></g></g><g><path d="m139.874 154.041c-.493-1.29.152-2.735 1.441-3.229.89-.34 1.813-.7 2.765-1.079 1.286-.511 2.737.116 3.247 1.398.511 1.283-.116 2.737-1.398 3.247-.974.388-1.917.755-2.827 1.104-1.289.493-2.734-.151-3.228-1.441zm12.057-4.87c-.571-1.257-.016-2.739 1.241-3.311 10.61-4.824 19.862-10.139 27.498-15.797 9.288-6.881 15.01-18.402 14.349-30.909-1.312-24.764-9.495-49.726-16.13-66.306-.513-1.282.111-2.737 1.393-3.25s2.737.11 3.25 1.393c6.774 16.93 15.133 42.453 16.48 67.899.758 14.265-5.813 27.373-16.365 35.191-7.918 5.867-17.476 11.361-28.405 16.331-1.259.571-2.74.015-3.311-1.241z" fill="#f8e5b0"/></g><g><g><path d="m95 51.688c-1.381 0-2.5-1.119-2.5-2.5v-1.167c0-1.381 1.119-2.5 2.5-2.5s2.5 1.119 2.5 2.5v1.167c0 1.381-1.119 2.5-2.5 2.5z" fill="#cf941c"/></g></g><g><g><path d="m166.5 119.401c-1.381 0-2.5-1.119-2.5-2.5v-1.167c0-1.381 1.119-2.5 2.5-2.5s2.5 1.119 2.5 2.5v1.167c0 1.381-1.119 2.5-2.5 2.5z" fill="#cf941c"/></g></g><g><g><path d="m150.25 74.75c-1.381 0-2.5-1.119-2.5-2.5v-1.167c0-1.381 1.119-2.5 2.5-2.5s2.5 1.119 2.5 2.5v1.167c0 1.381-1.119 2.5-2.5 2.5z" fill="#f8e5b0"/></g></g><g><g><path d="m121.5 122.167c-1.381 0-2.5-1.119-2.5-2.5v-1.167c0-1.381 1.119-2.5 2.5-2.5s2.5 1.119 2.5 2.5v1.167c0 1.38-1.119 2.5-2.5 2.5z" fill="#f8e5b0"/></g></g><g><g><path d="m73.75 95.034c-1.381 0-2.5-1.119-2.5-2.5v-1.167c0-1.381 1.119-2.5 2.5-2.5s2.5 1.119 2.5 2.5v1.167c0 1.381-1.119 2.5-2.5 2.5z" fill="#f8e5b0"/></g></g><g><g><path d="m109.5 107.25c-1.381 0-2.5-1.119-2.5-2.5v-1.167c0-1.381 1.119-2.5 2.5-2.5s2.5 1.119 2.5 2.5v1.167c0 1.381-1.119 2.5-2.5 2.5z" fill="#e8a61e"/></g></g><g><g><path d="m157.25 51.104c-1.381 0-2.5-1.119-2.5-2.5v-1.167c0-1.381 1.119-2.5 2.5-2.5s2.5 1.119 2.5 2.5v1.167c0 1.381-1.119 2.5-2.5 2.5z" fill="#e8a61e"/></g></g><path d="m205.45 32.29c.462 1.293 1.927 1.962 3.2 1.49 1.3-.47 1.97-1.91 1.49-3.2-.45-1.26-1.93-1.96-3.2-1.49-1.282.448-1.969 1.888-1.49 3.2z"/><path d="m97.39 234.9c1.33-.416 2.062-1.822 1.65-3.12-.39-1.3-1.82-2.06-3.12-1.66-1.321.413-2.057 1.805-1.66 3.12.397 1.277 1.723 2.069 3.13 1.66z"/><path d="m208.69 41.67c6.59 20.18 10.39 39.07 11.29 56.16 1.102 20.55-8.22 40.312-24.43 52.32-15.53 11.52-33.26 19.44-45.39 24.06-6.757 2.577-11.26 9.023-11.26 16.35v25.35c0 7.778 5.079 14.512 12.36 16.73l29.48 9.06c2.69.897 2.213 4.832-.73 4.89h-104.02c-2.929-.058-3.43-3.99-.73-4.89l12.57-3.86c1.32-.41 2.06-1.81 1.65-3.13-.39-1.29-1.82-2.05-3.12-1.65l-12.57 3.86c-8.247 2.41-6.362 14.66 2.14 14.66h104.14c8.525 0 10.367-12.244 2.14-14.67l-29.48-9.05c-5.29-1.62-8.83-6.42-8.83-11.95v-25.35c0-5.15 3.23-9.84 8.04-11.68 12.43-4.74 30.6-12.87 46.59-24.71 17.26-12.793 27.596-33.704 26.45-56.6-.93-17.53-4.82-36.86-11.54-57.45-.42-1.29-1.86-2.03-3.15-1.6-1.284.4-2.045 1.794-1.6 3.15z"/><path d="m57.47 154.17c15.99 11.84 34.16 19.97 46.59 24.71 4.81 1.84 8.04 6.53 8.04 11.68v25.35c.01 4.76-2.76 9.17-7.04 11.25-1.227.593-1.767 2.085-1.16 3.34.613 1.255 2.145 1.759 3.34 1.16 5.921-2.869 9.86-8.917 9.86-15.75v-25.35c0-7.323-4.497-13.771-11.26-16.35-12.13-4.62-29.86-12.54-45.39-24.06-16.045-11.885-25.552-31.58-24.43-52.32 1.495-28.767 11.762-62.105 23.32-86.97.41-.89 1.28-1.44 2.26-1.44h132.8c.98 0 1.85.55 2.26 1.44 1.18 2.55 3.05 6.73 5.24 12.16.5 1.25 1.99 1.89 3.25 1.39 1.28-.52 1.9-1.97 1.39-3.25-2.23-5.53-4.13-9.8-5.34-12.41-1.23-2.63-3.89-4.33-6.8-4.33h-132.8c-2.91 0-5.57 1.7-6.8 4.33-12.093 26.173-22.195 59.468-23.78 88.82-1.129 22.36 8.765 43.492 26.45 56.6z"/><path d="m69.09 19.62c-1.24-.53-2.75.08-3.28 1.32-6.69 15.64-18.16 46.51-19.81 77.42-.532 9.315 1.58 19.165 6.36 27.76.669 1.2 2.204 1.638 3.4.96 1.247-.677 1.618-2.225.98-3.38 0-.01 0-.01-.01-.01-4.33-7.793-6.243-16.794-5.73-25.06 1.64-31.35 14.12-63.4 19.41-75.73.55-1.29-.074-2.758-1.32-3.28z"/><path d="m66.4 142.12c14.49 10.73 31.34 18.27 42.93 22.7 12.051 4.619 25.315 4.609 37.34 0 11.59-4.43 28.44-11.97 42.93-22.7 13.828-10.25 21.311-26.755 20.4-43.76-1.65-30.92-13.12-61.78-19.81-77.42-.53-1.24-2.04-1.85-3.28-1.32-1.222.512-1.878 1.961-1.32 3.27v.01c5.29 12.33 17.77 44.38 19.41 75.72.88 15.008-5.551 29.967-18.38 39.48-14.79 10.96-32.49 18.52-41.73 22.05-10.86 4.16-22.91 4.16-33.78 0-14.397-5.5-31.445-14.052-42.02-22.27-1.08-.81-2.7-.57-3.51.49-.784 1.058-.778 2.508.82 3.75z"/><path d="m58.64 131.19c-1.074.927-1.137 2.512-.25 3.52.91 1.042 2.469 1.15 3.53.25 1.04-.91 1.15-2.49.24-3.53-.87-1-2.52-1.12-3.52-.24z"/></g></g></svg>