<svg id="outline" height="512" viewBox="0 0 64 64" width="512" xmlns="http://www.w3.org/2000/svg"><g><circle cx="27" cy="4" r="1"/><circle cx="37" cy="4" r="1"/><circle cx="27" cy="53.172" r="1"/><circle cx="37" cy="53.172" r="1"/><path d="m45.435 8.494c.391.391 1.024.391 1.414 0s.391-1.024 0-1.414c-.391-.391-1.024-.391-1.414 0-.391.39-.391 1.023 0 1.414z"/><path d="m52.506 15.565c.391.391 1.024.391 1.414 0 .391-.391.391-1.024 0-1.414-.391-.391-1.024-.391-1.414 0-.39.39-.39 1.023 0 1.414z"/><path d="m12.079 41.85c-.391-.391-1.024-.391-1.414 0-.391.391-.391 1.024 0 1.414.391.391 1.024.391 1.414 0 .391-.391.391-1.024 0-1.414z"/><path d="m17.736 50.335c.391.391 1.024.391 1.414 0 .391-.391.391-1.024 0-1.414-.391-.391-1.024-.391-1.414 0-.39.39-.39 1.023 0 1.414z"/><path d="m53.92 42.435c-.391-.391-1.024-.391-1.414 0-.391.391-.391 1.024 0 1.414.391.391 1.024.391 1.414 0 .391-.39.391-1.023 0-1.414z"/><path d="m46.849 49.506c-.391-.391-1.024-.391-1.414 0-.391.391-.391 1.024 0 1.414.391.391 1.024.391 1.414 0s.391-1.023 0-1.414z"/><path d="m17.736 9.079c.391.391 1.024.391 1.414 0 .391-.391.391-1.024 0-1.414-.391-.391-1.024-.391-1.414 0-.39.39-.39 1.024 0 1.414z"/><path d="m10.665 16.15c.391.391 1.024.391 1.414 0 .391-.391.391-1.024 0-1.414-.391-.391-1.024-.391-1.414 0-.391.391-.391 1.024 0 1.414z"/><circle cx="57" cy="24" r="1"/><circle cx="57" cy="34" r="1"/><circle cx="7.828" cy="24" r="1"/><circle cx="7.828" cy="34" r="1"/><path d="m6.152 53.47c-.106.169-.158.365-.151.564l.267 7.678c-.081.549.068 1.103.419 1.539.381.476.95.749 1.56.749h7.187c.698 0 1.355-.372 1.715-.971.066-.11.11-.232.131-.359l.62-3.953 5.252-2.102c2.791.896 5.763 1.385 8.848 1.385s6.057-.489 8.849-1.385l5.252 2.102.62 3.953c.021.127.064.249.131.359.359.599 1.016.971 1.714.971h7.187c.61 0 1.179-.273 1.561-.749.351-.437.5-.99.419-1.539l.267-7.678c.007-.199-.045-.396-.151-.564l-3.649-5.838c4.239-5.043 6.8-11.543 6.8-18.632 0-15.991-13.01-29-29-29s-29 13.009-29 29c0 7.089 2.561 13.589 6.8 18.632zm10.476 3.602c-.327.131-.562.425-.616.773l-.653 4.155h-7.112c.018-.083.025-.167.022-.251l-.26-7.478 3.185-5.098c2.605 2.686 5.722 4.87 9.194 6.393zm-5.628-28.072c0-5.172 1.888-9.905 5-13.569v27.137c-3.112-3.663-5-8.396-5-13.568zm42 0c0 5.172-1.888 9.905-5 13.569v-27.138c3.112 3.664 5 8.397 5 13.569zm-7 15.608c-1.762 1.582-3.779 2.881-6 3.8v-20.592c1.161-.414 2-1.514 2-2.816s-.839-2.402-2-2.816v-12.592c2.221.919 4.238 2.218 6 3.8zm-21-20.608h14c.552 0 1 .449 1 1s-.448 1-1 1h-14c-.552 0-1-.449-1-1s.448-1 1-1zm9.949 12.492c-.243-1.412-1.469-2.492-2.949-2.492s-2.706 1.08-2.949 2.492c-.018-.104-.051-.204-.051-.312v-2.36c0-1.003.816-1.82 1.82-1.82h2.359c1.004 0 1.82.816 1.82 1.82v2.36c.001.108-.032.208-.05.312zm-3.949 5.508v-5c0-.551.448-1 1-1s1 .449 1 1v5zm3-11.906c-.265-.059-.538-.094-.82-.094h-2.36c-.279 0-.549.034-.811.091v-2.091h3.991zm-8-2.094h2.01v3.254c-.621.679-1.01 1.575-1.01 2.566v2.36c0 1.408.797 2.689 2 3.349v3.471c0 .552.447 1 1 1h1v5.949c-1.728-.082-3.405-.357-5-.834zm7 16h1c.553 0 1-.448 1-1v-3.471c1.203-.659 2-1.941 2-3.349v-2.36c0-.985-.385-1.876-1-2.554v-3.266h2v21.116c-1.595.477-3.272.752-5 .834zm5-22h-5v-13.949c1.728.082 3.405.357 5 .834zm-7 0h-5v-13.116c1.595-.477 3.272-.752 5-.834zm-7-12.408v12.592c-1.161.414-2 1.514-2 2.816s.839 2.402 2 2.816v20.592c-2.221-.919-4.238-2.218-6-3.8v-31.216c1.762-1.582 3.779-2.881 6-3.8zm-7.532 36.354c1.775 1.628 3.807 2.978 6.025 3.989l-1.495 3.712c-2.719-1.219-5.201-2.871-7.357-4.874zm7.879 4.74c2.096.742 4.33 1.189 6.653 1.289v4c-2.85-.104-5.589-.648-8.149-1.573zm8.653 1.289c2.482-.107 4.863-.609 7.082-1.445l1.568 3.68c-2.703 1.038-5.613 1.653-8.65 1.764zm10.49 1.451-1.568-3.68c2.058-.988 3.945-2.274 5.61-3.801l2.827 2.827c-2.026 1.884-4.34 3.46-6.869 4.654zm5.456-8.894c1.628-1.775 2.977-3.807 3.989-6.025l3.713 1.495c-1.219 2.719-2.871 5.202-4.874 7.357zm4.74-7.879c.742-2.096 1.189-4.33 1.289-6.653h4c-.104 2.85-.648 5.589-1.573 8.149zm1.289-8.653c-.107-2.482-.609-4.863-1.445-7.083l3.68-1.568c1.038 2.703 1.653 5.613 1.764 8.65h-3.999zm-2.228-8.923c-.988-2.057-2.274-3.945-3.8-5.609l2.827-2.827c1.883 2.026 3.459 4.34 4.653 6.869zm-5.215-7.023c-1.775-1.628-3.807-2.978-6.025-3.989l1.495-3.712c2.719 1.219 5.201 2.871 7.357 4.874zm-7.879-4.74c-2.096-.742-4.33-1.189-6.653-1.289v-4c2.85.104 5.589.648 8.149 1.573zm-8.653-1.289c-2.482.107-4.863.609-7.082 1.445l-1.568-3.68c2.703-1.038 5.613-1.653 8.65-1.764zm-8.923 2.228c-2.058.988-3.945 2.274-5.61 3.801l-2.827-2.827c2.026-1.883 4.34-3.459 6.869-4.653zm-7.023 5.215c-1.628 1.775-2.977 3.807-3.989 6.025l-3.713-1.495c1.219-2.719 2.871-5.202 4.874-7.357zm-4.74 7.879c-.742 2.096-1.189 4.33-1.289 6.653h-4c.104-2.85.648-5.589 1.573-8.149zm-1.289 8.653c.107 2.482.609 4.863 1.445 7.083l-3.68 1.567c-1.039-2.703-1.653-5.612-1.765-8.65zm2.228 8.923c.988 2.057 2.274 3.945 3.8 5.609l-2.827 2.827c-1.883-2.026-3.459-4.34-4.653-6.869zm44.737 15.348-.26 7.478c-.003.084.004.169.022.251h-7.112l-.652-4.156c-.055-.348-.289-.642-.616-.773l-3.761-1.506c3.472-1.524 6.589-3.708 9.194-6.393z"/></g></svg>