<?xml version="1.0" encoding="utf-8"?>
<!-- Generator: Adobe Illustrator 25.2.1, SVG Export Plug-In . SVG Version: 6.00 Build 0)  -->
<svg version="1.1" id="Layer_1" xmlns="http://www.w3.org/2000/svg" xmlns:xlink="http://www.w3.org/1999/xlink" x="0px" y="0px"
	 viewBox="0 0 69.3 72.7" style="enable-background:new 0 0 69.3 72.7;" xml:space="preserve">
<style type="text/css">
	.st0{fill:none;stroke:#000000;stroke-miterlimit:10;}
</style>
<path class="st0" d="M33.8,69.6c0,0-4.4-5-6.8-11.7c2-3.6,3.7-7.4,5.3-11.2l0.5,0.6c0,5.3,0.2,10.7,1,15.2c0.8-4.5,1-9.9,1-15.2
	l0.5-0.6c1.6,3.8,3.3,7.6,5.3,11.2C38.2,64.5,33.8,69.6,33.8,69.6 M46,43.1c-0.3,4.2-0.9,7.9-0.9,7.9c-0.2-5.5,1-7.7-2.1-11.5
	c-2-2.4-1.1-2.5-2.9,0.4c-1,1.6-2.1,3.2-3.3,4.8l0,0c0.1,0.2,0.1,0.4,0.2,0.6c4.4,10.6,7.5,15.1,7.5,15.1
	C49.9,52.3,51.9,49.8,46,43.1z M21.5,43.1c0.3,4.2,0.9,7.9,0.9,7.9c0.2-6.3-1-7.7,2.1-11.5c2-2.4,1.1-2.5,2.9,0.4
	c1,1.6,2.1,3.2,3.3,4.8l0,0c-0.1,0.2-0.1,0.4-0.2,0.6C26.1,56,23,60.5,23,60.5C17.7,52.3,15.7,49.8,21.5,43.1z M33.8,45.2
	c0,0-8.5-9.7-10.4-21.1c3.9-2.7,6.9-6.4,9.1-10.7c0,7.7,0.1,15.9,1.3,22.5c1.2-6.6,1.4-14.8,1.3-22.5c2.1,4.3,5.2,8,9.1,10.7
	C42.3,35.5,33.8,45.2,33.8,45.2z M16.7,27.9c-0.2,0.4-0.3,0.8-0.5,1.3c-1.8,5.2-1.6,8.8-1.6,8.8c0.6-4.2,2.4-10.2,6.5-12.5l0,0l0,0
	l0,0c0.1,0,0.1-0.1,0.2-0.1c0,0,0.1-0.1,0.1-0.1l0,0l0,0l0,0l0,0c0.7,3.5,1.9,6.9,3.5,10.1c-0.6,1-1.2,1.9-2,2.9
	c-7.3,8.8-11.7,12.2-11.7,12.2c-3.5-12.3-3.6-17.6,4.7-22.1c0.1,0,0.1-0.1,0.2-0.1h0l0.1-0.1l0.1,0l0.1-0.1l0,0l0.1-0.1l0,0
	L16.7,27.9z M50.8,27.9c0.2,0.4,0.3,0.8,0.5,1.3c1.8,5.2,1.6,8.8,1.6,8.8c-0.6-4.1-2.7-10.4-6.5-12.5l0,0l0,0l0,0
	c-0.1,0-0.1-0.1-0.2-0.1c0,0-0.1-0.1-0.1-0.1l0,0l0,0l0,0l0,0c-0.7,3.5-1.9,6.9-3.5,10.1c0.6,1,1.2,1.9,2,2.9
	c7.3,8.8,11.7,12.2,11.7,12.2c3.3-11.7,4-17.5-4.3-21.9l-0.1,0l-0.1-0.1l-0.1-0.1l0,0c-0.1,0-0.1-0.1-0.2-0.1h0
	c-0.1,0-0.1-0.1-0.2-0.1h0l-0.1-0.1l-0.1,0l-0.1-0.1l0,0L51,28l0,0L50.8,27.9z M39.7,2.9c0,0,7.3,3.5,11.3,8.4s5.2,8.8,5.2,8.8
	s-3.8-7-11-11C38,5,34.4,4.6,34.4,4.6s1.6,12.3,13,18.9S64.6,32,64.6,32C63.5,17.7,56.3,2,39.7,2.9z M27.9,2.9c0,0-7.3,3.5-11.3,8.4
	s-5.2,8.8-5.2,8.8s3.8-7,11-11s10.8-4.5,10.8-4.5s-1.6,12.3-13,18.9S2.9,32,2.9,32C4,17.7,11.2,2,27.9,2.9z"/>
</svg>
