<?xml version="1.0" encoding="utf-8"?>
<!-- Generator: Adobe Illustrator 25.2.1, SVG Export Plug-In . SVG Version: 6.00 Build 0)  -->
<svg version="1.1" id="Layer_1" xmlns="http://www.w3.org/2000/svg" xmlns:xlink="http://www.w3.org/1999/xlink" x="0px" y="0px"
	 viewBox="0 0 228 253.3" style="enable-background:new 0 0 228 253.3;" xml:space="preserve">
<style type="text/css">
	.st0{fill-rule:evenodd;clip-rule:evenodd;fill:none;stroke:#FFFFFF;stroke-miterlimit:10;}
</style>
<path class="st0" d="M116.4,242.5c0,0-15.2-17.4-23.4-40.4c6.8-12.5,12.7-25.5,18.2-38.6l1.8,2c0.1,18.2,0.6,36.9,3.5,52.4
	c2.9-15.5,3.5-34.2,3.5-52.4l1.8-2c5.5,13.1,11.4,26.2,18.2,38.6C131.6,225.1,116.4,242.5,116.4,242.5 M158.8,151.1
	c-0.9,14.4-3.1,27.3-3.1,27.3c-0.6-19.1,3.3-26.7-7.3-39.6c-6.9-8.3-3.9-8.7-10,1.4c-3.5,5.7-7.2,11.2-11.3,16.5l-0.1,0.1
	c0.3,0.7,0.5,1.4,0.8,2.1c15.2,36.6,26,52.3,26,52.3C172.1,182.9,179,174.2,158.8,151.1z M74,151.1c0.9,14.4,3.1,27.3,3.1,27.3
	c0.7-21.8-3.3-26.7,7.3-39.6c6.9-8.3,3.9-8.7,10,1.4c3.5,5.7,7.2,11.2,11.3,16.5l0.1,0.1c-0.3,0.7-0.5,1.4-0.8,2.1
	c-15.2,36.6-26,52.3-26,52.3C60.7,182.9,53.8,174.2,74,151.1z M116.4,158.2c0,0-29.4-33.5-36.1-73.1c13.5-9.5,24-22.2,31.5-37
	c-0.1,26.5,0.3,54.9,4.6,77.8c4.3-22.8,4.7-51.2,4.6-77.8c7.4,14.8,18,27.5,31.5,37C145.7,124.7,116.4,158.2,116.4,158.2z
	 M57.4,98.6c-0.6,1.5-1.2,2.9-1.7,4.4c-6.2,17.9-5.6,30.6-5.6,30.6c2.2-14.6,8.3-35.2,22.4-43.4l0,0l0,0l0,0
	c0.2-0.1,0.4-0.3,0.7-0.4c0.1-0.1,0.3-0.2,0.4-0.3l0,0l0,0l0,0l0,0c2.4,12,6.7,23.7,12.1,34.8c-2,3.3-4.3,6.7-7,9.9
	c-25.3,30.6-40.3,42.3-40.3,42.3c-12-42.5-12.6-60.9,16.3-76.5c0.2-0.1,0.4-0.2,0.6-0.3l0.1,0l0.5-0.3l0.2-0.1l0.5-0.2l0,0l0.3-0.2
	l0,0L57.4,98.6z M175.4,98.6c0.6,1.5,1.2,2.9,1.7,4.4c6.2,17.9,5.6,30.6,5.6,30.6c-2.1-14.3-9.3-35.8-22.4-43.4l0,0l0,0l0,0
	c-0.2-0.1-0.4-0.3-0.7-0.4c-0.1-0.1-0.3-0.2-0.4-0.3l0,0l0,0l0,0l0,0c-2.4,12-6.7,23.7-12.1,34.8c2,3.3,4.3,6.7,7,9.9
	c25.3,30.6,40.3,42.3,40.3,42.3c11.4-40.5,13.8-60.4-14.7-75.6l-0.2-0.1l-0.5-0.3l-0.3-0.2l0,0c-0.2-0.1-0.4-0.2-0.6-0.3l-0.1,0
	c-0.2-0.1-0.4-0.2-0.6-0.3l-0.1,0l-0.5-0.3l-0.2-0.1l-0.5-0.2l0,0l-0.3-0.2l0,0L175.4,98.6z M136.7,11.9c0,0,25.4,12.2,39.1,28.9
	c13.7,16.7,18,30.5,18,30.5s-13.2-24.1-38.1-38.1c-24.9-14-37.2-15.4-37.2-15.4s5.7,42.7,44.8,65.5c39.1,22.8,59.8,29.4,59.8,29.4
	C219.2,63.2,194.4,8.8,136.7,11.9z M96.1,11.9c0,0-25.4,12.2-39.1,28.9c-13.7,16.7-18,30.5-18,30.5s13.2-24.1,38.1-38.1
	c24.9-14,37.2-15.4,37.2-15.4s-5.7,42.7-44.8,65.5c-39.1,22.8-59.8,29.4-59.8,29.4C13.5,63.2,38.4,8.8,96.1,11.9z"/>
</svg>
